<?xml version="1.0" encoding="utf-8"?>
<!-- Svg Vector Icons : http://www.onlinewebfonts.com/icon -->
<!DOCTYPE svg PUBLIC "-//W3C//DTD SVG 1.1//EN" "http://www.w3.org/Graphics/SVG/1.1/DTD/svg11.dtd">
<svg version="1.1" xmlns="http://www.w3.org/2000/svg" xmlns:xlink="http://www.w3.org/1999/xlink" x="0px" y="0px" viewBox="0 0 256 256" enable-background="new 0 0 256 256" xml:space="preserve">
<metadata> Svg Vector Icons : http://www.onlinewebfonts.com/icon </metadata>
<g><g><path fill="#000000" d="M128,10c65.2,0,118,52.8,118,118c0,65.2-52.8,118-118,118c-65.2,0-118-52.8-118-118C10,62.8,62.8,10,128,10L128,10z M127.9,123.6c20.3,0,36.7-16.4,36.7-36.7s-16.4-36.7-36.7-36.7S91.2,66.6,91.2,86.9S107.6,123.6,127.9,123.6L127.9,123.6z M74.7,195.8c2.6-9.7,6-18.6,10.2-25.6c0.4-0.6,0.8-1.2,1.2-1.8v27.4h83.6V168c0.5,0.7,1,1.4,1.4,2.2c4.2,7,7.6,15.9,10.2,25.6h21.9c-3.1-13-7.4-25.6-13.9-36.5c-6.3-10.5-15-19.7-26.8-24.4c-0.4-0.2-0.8-0.4-1.3-0.5c-0.1,0-0.3-0.1-0.4-0.2c-0.2-0.1-0.4-0.1-0.6-0.2c-0.3-0.1-0.6-0.2-0.9-0.2c-0.6-0.1-1.2-0.2-1.9-0.2c-0.1,0-0.3,0-0.4,0H98.8c-0.2,0-0.4,0-0.6,0.1c-0.4,0-0.8,0-1.2,0.1c-1.6,0.2-3.1,0.8-4.5,1.6c-11.2,4.9-19.6,13.8-25.7,24c-6.5,10.9-10.8,23.5-13.9,36.5H74.7L74.7,195.8z"/></g></g>
</svg>